<mxfile host="app.diagrams.net" modified="2023-07-10T10:51:20.233Z" agent="Mozilla/5.0 (Windows NT 10.0; Win64; x64) AppleWebKit/537.36 (KHTML, like Gecko) Chrome/114.0.0.0 Safari/537.36" version="21.5.2" etag="ZkG77BNX9LT5zuNXGeD0" type="github">
  <diagram name="PÃ¡gina-1" id="4YKtpcFEU1-h2HvdiOjm">
    <mxGraphModel>
      <root>
        <mxCell id="0" />
        <mxCell id="1" parent="0" />
      </root>
    </mxGraphModel>
  </diagram>
</mxfile>
